<?xml version="1.0" encoding="iso-8859-1"?>
<!-- Generator: Adobe Illustrator 19.0.0, SVG Export Plug-In . SVG Version: 6.00 Build 0)  -->
<svg version="1.1" id="Layer_1" xmlns="http://www.w3.org/2000/svg" xmlns:xlink="http://www.w3.org/1999/xlink" x="0px" y="0px"
	 viewBox="0 0 488 488" style="enable-background:new 0 0 488 488;" xml:space="preserve">
<g transform="translate(0 -540.36)">
	<g>
		<g>
			<path d="M192.4,991.11h-162c-5.5,0-10,4.5-10,10s4.5,10,10,10h162c5.6,0,10-4.5,10-10S197.9,991.11,192.4,991.11z"/>
			<path d="M435.8,950.61H50.9c-5.5,0-10,4.5-10,10s4.5,10,10,10h384.9c5.6,0,10-4.5,10-10S441.3,950.61,435.8,950.61z"/>
			<path d="M456.4,909.41H264c-5.5,0-10,4.5-10,10s4.5,10,10,10h192.4c5.5,0,10-4.5,10-10S461.9,909.41,456.4,909.41z"/>
			<path d="M121.8,873.71h131.6c28.1,0,53.2-12.8,70-32.8H385c5.5,0,10-4.5,10-10s-4.5-10-10-10h-48.8c2.8-5.9,4.9-12.2,6.4-18.7h54
				c50.4,0,91.4-41.1,91.4-91.7c0-50.6-41.1-91.8-91.5-91.8l0,0c-8,0-16.5,1.3-24.6,3.7c-21.5-39.7-62.5-64.8-106.9-64.8
				c-26.2,0-51.2,8.3-72.3,24c-5,3.7-9.8,7.9-14.2,12.4h-66.6c-5.5,0-10,4.5-10,10s4.5,10,10,10h50.6c-4,6.3-7.5,12.9-10.3,19.7
				c-9.8-2.5-19.9-3.8-30.4-3.8C54.6,629.91,0,684.41,0,751.41C0,818.81,54.6,873.71,121.8,873.71z M187.3,613.91h45.5
				c5.5,0,10-4.5,10-10s-4.5-10-10-10h-22.7c16.1-10.4,35.1-16.4,54.8-16.4c39.6,0,76,24.1,92.8,61.3c2.2,4.9,8,7.2,13,5.1
				c8.1-3.4,17.5-5.3,25.8-5.3c39.4,0,71.4,32.2,71.4,71.7c-0.1,39.6-32.1,71.8-71.4,71.8v0h-51.8c0-0.1,0-0.1,0-0.2
				c0-24.4-9.5-47.3-26.8-64.5c-17.2-17.1-40.2-26.5-64.6-26.5c-8.6,0-16.7,1-24.4,3.1c-12.8-24.3-33.3-43-57.8-53.8
				C175.2,630.61,180.7,621.71,187.3,613.91z M121.6,649.81c40.5,0,76.9,23.7,92.7,60.4c2.1,4.9,7.8,7.3,12.8,5.4
				c8.1-3.1,16.7-4.7,26.1-4.7c39.4,0,71.4,31.8,71.4,70.9c0,14.3-4.2,27.7-11.4,38.9h-49.3v0.1c-5.5,0-10,4.5-10,10s4.5,10,10,10
				h30c-11.6,8.1-25.6,12.8-40.7,12.8H121.6c-56.1,0-101.8-45.9-101.8-102.3C19.8,695.31,65.5,649.81,121.6,649.81z"/>
		</g>
	</g>
</g>
<g>
</g>
<g>
</g>
<g>
</g>
<g>
</g>
<g>
</g>
<g>
</g>
<g>
</g>
<g>
</g>
<g>
</g>
<g>
</g>
<g>
</g>
<g>
</g>
<g>
</g>
<g>
</g>
<g>
</g>
</svg>
